<svg width="61" height="61" viewBox="0 0 61 61" fill="none" xmlns="http://www.w3.org/2000/svg">
<g clip-path="url(#clip0_479_5932)">
<path d="M60.6666 51.2422V53.2344C60.6225 53.3359 60.5854 53.4403 60.5557 53.5469C59.876 56.9844 57.8557 59.1937 54.5182 60.214C54.151 60.3265 53.7729 60.4016 53.401 60.4937H51.4088C51.3036 60.4494 51.1949 60.4139 51.0838 60.3875C49.9964 60.2202 48.9538 59.8361 48.0177 59.258C47.0817 58.6799 46.2714 57.9196 45.6349 57.0223C44.9984 56.1249 44.5488 55.1088 44.3126 54.0343C44.0765 52.9597 44.0587 51.8487 44.2604 50.7672C44.4573 49.7156 44.9213 48.7141 45.2557 47.7094L40.8807 43.3078C34.0682 48.0182 27.2526 48.0453 20.4338 43.389L15.9791 47.8203L16.1838 48.1844C16.7924 49.2791 17.1448 50.4977 17.2144 51.7483C17.2839 52.9989 17.0689 54.249 16.5855 55.4045C16.102 56.56 15.3628 57.5908 14.4234 58.4193C13.4839 59.2477 12.3688 59.8523 11.1619 60.1875C10.7526 60.3031 10.3369 60.3922 9.92444 60.5H7.93225C7.83076 60.4559 7.72634 60.4188 7.61975 60.389C4.18225 59.7094 1.976 57.6859 0.951002 54.3516C0.838502 53.9859 0.765065 53.6078 0.672877 53.2344V51.2422C0.716469 51.1367 0.751987 51.028 0.779126 50.9172C0.945947 49.8291 1.32992 48.7858 1.90819 47.8492C2.48647 46.9125 3.24723 46.1018 4.14522 45.4652C5.04321 44.8286 6.06008 44.3791 7.13532 44.1435C8.21056 43.9079 9.32221 43.891 10.4041 44.0937C11.4557 44.2906 12.4572 44.7547 13.4182 45.075L17.801 40.7C13.1869 35.0375 12.8213 26.3094 17.6869 20.2719L13.4541 15.75L13.0354 15.9828C11.9366 16.6057 10.7098 16.969 9.44896 17.0449C8.18813 17.1209 6.92665 16.9073 5.76103 16.4207C4.59541 15.9341 3.55654 15.1873 2.72393 14.2375C1.89131 13.2876 1.287 12.1599 0.957249 10.9406C0.850999 10.55 0.763501 10.1594 0.666626 9.76092V7.88593C0.705688 7.73749 0.754124 7.58905 0.782249 7.43749C1.29319 4.65936 2.79788 2.59374 5.33381 1.36092C6.17756 0.949986 7.14006 0.7828 8.04944 0.503113H9.92444C10.0687 0.550656 10.2152 0.59081 10.3635 0.623424C12.2257 0.948118 13.9208 1.90013 15.1671 3.3213C16.4135 4.74248 17.1362 6.54728 17.2151 8.43592C17.29 10.0696 16.879 11.6889 16.0338 13.0891L20.2854 17.5781C27.2416 12.8219 34.0776 12.8406 41.0026 17.6484L45.3073 13.1047C45.3073 13.1047 45.2479 12.9875 45.1823 12.8703C44.5624 11.7758 44.2001 10.5544 44.1227 9.29897C44.0453 8.0435 44.2549 6.7869 44.7356 5.62454C45.2164 4.46218 45.9556 3.4246 46.8971 2.59055C47.8387 1.7565 48.9579 1.14789 50.1698 0.810925C50.5791 0.696863 50.9948 0.6078 51.4088 0.5078H53.401C53.4849 0.550253 53.5729 0.584273 53.6635 0.609362C57.1526 1.21092 59.7401 3.67186 60.4948 7.11092C60.5448 7.3328 60.6088 7.55311 60.6666 7.77343V9.76561C60.6203 9.89007 60.5822 10.0174 60.5526 10.1469C59.8354 14.6484 55.476 17.7687 50.9869 16.9187C49.9135 16.7172 48.8916 16.2547 47.7057 15.864C46.3932 17.2562 44.9635 18.7687 43.5541 20.2625C48.2135 27.0406 48.2026 33.8797 43.4979 40.6906L47.9994 45.1875L48.2979 45.0219C49.3968 44.398 50.6238 44.0339 51.8852 43.9574C53.1465 43.8809 54.4085 44.0941 55.5748 44.5806C56.741 45.0671 57.7804 45.8141 58.6134 46.7643C59.4464 47.7144 60.0509 48.8426 60.3807 50.0625C60.4869 50.4515 60.5713 50.8484 60.6666 51.2422ZM25.126 32.95C22.8323 29.5453 23.8854 25.8078 26.126 23.8406C28.4338 21.8094 31.9619 21.5969 34.4713 23.3875C35.7352 24.2646 36.6549 25.5538 37.0729 27.0344C37.6791 29.1484 37.2729 31.1109 36.0338 32.9406C38.2526 33.929 40.0204 35.713 40.9885 37.9406C44.2994 33.7875 44.8104 26.05 39.3385 20.9672C34.1151 16.1234 25.9698 16.4515 21.0916 21.7484C16.2135 27.0453 17.2651 34.425 20.2198 37.925C21.1794 35.7141 22.9287 33.9403 25.126 32.95ZM30.6057 35.6219V35.675C29.9807 35.675 29.3557 35.6531 28.7307 35.675C27.403 35.7249 26.13 36.2165 25.1133 37.0718C24.0967 37.9271 23.3945 39.0973 23.1182 40.3969C23.0541 40.6953 23.0713 40.8828 23.3494 41.0828C27.4463 44.0266 33.7541 44.0359 37.8307 41.0687C37.9133 40.993 37.9777 40.8995 38.0191 40.7953C38.0605 40.6912 38.0778 40.579 38.0698 40.4672C37.6573 38.0765 35.6276 36.0922 33.226 35.7719C32.3635 35.6562 31.4807 35.6687 30.6057 35.6219ZM13.7057 52.2187C13.7105 51.5932 13.591 50.973 13.3542 50.3941C13.1174 49.8151 12.768 49.2889 12.3263 48.8461C11.8846 48.4032 11.3593 48.0524 10.781 47.8141C10.2026 47.5758 9.58275 47.4547 8.95725 47.4578C8.33047 47.4543 7.70919 47.5749 7.12928 47.8128C6.54937 48.0507 6.02232 48.401 5.57853 48.8437C5.13473 49.2863 4.78299 49.8124 4.54361 50.3917C4.30423 50.971 4.18195 51.5919 4.18382 52.2187C4.18506 53.482 4.68733 54.6932 5.58045 55.5866C6.47357 56.48 7.68461 56.9827 8.94788 56.9844C9.57363 56.9854 10.1934 56.8628 10.7716 56.6235C11.3499 56.3843 11.8751 56.0332 12.3172 55.5904C12.7593 55.1475 13.1096 54.6217 13.3479 54.0431C13.5861 53.4645 13.7077 52.8445 13.7057 52.2187ZM52.3854 47.4641C51.7597 47.4609 51.1396 47.5821 50.561 47.8205C49.9825 48.0589 49.4571 48.4097 49.0152 48.8528C48.5734 49.2958 48.2239 49.8221 47.987 50.4013C47.7501 50.9804 47.6306 51.6008 47.6354 52.2265C47.6343 52.851 47.7565 53.4695 47.9947 54.0467C48.233 54.6239 48.5827 55.1484 49.0239 55.5904C49.465 56.0323 49.989 56.3828 50.5658 56.622C51.1426 56.8612 51.7609 56.9844 52.3854 56.9844C53.6486 56.9827 54.8597 56.48 55.7528 55.5866C56.6459 54.6932 57.1482 53.482 57.1494 52.2187C57.1507 51.5932 57.0282 50.9736 56.7891 50.3956C56.55 49.8175 56.199 49.2925 55.7563 48.8506C55.3135 48.4087 54.7878 48.0587 54.2093 47.8208C53.6308 47.5828 53.0109 47.4616 52.3854 47.4641ZM13.7041 8.80624C13.7097 8.1809 13.5916 7.56063 13.3567 6.98106C13.1219 6.40149 12.7748 5.87404 12.3354 5.42903C11.8961 4.98401 11.3731 4.63019 10.7966 4.3879C10.2201 4.14561 9.60135 4.01962 8.976 4.01717C7.71245 4.01135 6.4982 4.50708 5.59976 5.39557C4.70132 6.28405 4.19208 7.4927 4.18382 8.75624C4.1797 9.38165 4.29917 10.0017 4.53537 10.5808C4.77157 11.1599 5.11985 11.6867 5.5602 12.1308C6.00055 12.5749 6.52429 12.9277 7.10136 13.1688C7.67843 13.4099 8.29745 13.5347 8.92288 13.5359C9.54848 13.5434 10.1693 13.4265 10.7494 13.1921C11.3295 12.9577 11.8572 12.6104 12.302 12.1704C12.7468 11.7304 13.0998 11.2065 13.3405 10.6289C13.5812 10.0514 13.7048 9.43189 13.7041 8.80624ZM52.3713 13.5359C52.9968 13.54 53.6169 13.4205 54.196 13.1842C54.7751 12.9479 55.3018 12.5994 55.7459 12.1589C56.1899 11.7184 56.5425 11.1944 56.7833 10.6172C57.0242 10.0399 57.1486 9.42078 57.1494 8.7953C57.1519 7.53163 56.6528 6.31863 55.7615 5.42274C54.8703 4.52685 53.66 4.02131 52.3963 4.01717C51.7708 4.0145 51.1509 4.13545 50.5722 4.37308C49.9935 4.61071 49.4675 4.96033 49.0244 5.40186C48.5813 5.84339 48.2298 6.36813 47.9901 6.94592C47.7503 7.52372 47.6271 8.14319 47.6276 8.76874C47.6224 9.39424 47.7414 10.0146 47.9777 10.5937C48.2139 11.1729 48.5628 11.6995 49.004 12.1429C49.4452 12.5863 49.9701 12.9377 50.5481 13.1768C51.1261 13.416 51.7458 13.538 52.3713 13.5359ZM27.3526 28.9125C27.3493 29.3369 27.4301 29.7577 27.5903 30.1506C27.7506 30.5436 27.9871 30.9009 28.2863 31.2019C28.5854 31.5029 28.9412 31.7417 29.3331 31.9044C29.7251 32.0672 30.1454 32.1506 30.5698 32.15C31.4267 32.1558 32.251 31.8219 32.8622 31.2212C33.4734 30.6206 33.8216 29.8022 33.8307 28.9453C33.8353 28.516 33.7542 28.09 33.5923 27.6924C33.4304 27.2947 33.1909 26.9333 32.8877 26.6293C32.5846 26.3252 32.2239 26.0847 31.8267 25.9216C31.4295 25.7586 31.0038 25.6763 30.5744 25.6797C30.1499 25.678 29.7293 25.7606 29.337 25.9226C28.9446 26.0846 28.5883 26.3228 28.2886 26.6235C27.989 26.9242 27.752 27.2813 27.5913 27.6742C27.4306 28.0671 27.3495 28.488 27.3526 28.9125Z" fill="#D4278B"/>
<path d="M25.126 32.95C22.9293 33.9406 21.1806 35.7144 20.2214 37.925C17.2667 34.425 16.2151 27.0406 21.0932 21.7484C25.9714 16.4562 34.1167 16.1234 39.3401 20.9672C44.8089 26.05 44.301 33.7875 40.9901 37.9406C40.022 35.713 38.2542 33.929 36.0354 32.9406C37.2745 31.1109 37.6807 29.1484 37.0745 27.0344C36.6561 25.5536 35.7358 24.2644 34.4714 23.3875C31.962 21.5969 28.4339 21.8109 26.126 23.8406C23.8854 25.8125 22.8323 29.5453 25.126 32.95Z" fill="#FDDFE3"/>
<path d="M52.3854 47.4641C53.0109 47.4616 53.6308 47.5828 54.2093 47.8208C54.7878 48.0587 55.3136 48.4087 55.7563 48.8506C56.1991 49.2925 56.5501 49.8175 56.7892 50.3956C57.0283 50.9736 57.1507 51.5932 57.1495 52.2188C57.1482 53.482 56.646 54.6932 55.7528 55.5866C54.8597 56.4801 53.6487 56.9827 52.3854 56.9844C51.7598 56.9862 51.14 56.8645 50.5615 56.6261C49.9831 56.3878 49.4575 56.0375 49.0148 55.5954C48.5721 55.1533 48.2211 54.6281 47.982 54.05C47.7429 53.4719 47.6203 52.8522 47.6214 52.2266C47.6166 51.5997 47.7365 50.9781 47.9743 50.398C48.212 49.818 48.5628 49.291 49.0061 48.8478C49.4495 48.4045 49.9766 48.054 50.5568 47.8164C51.1369 47.5789 51.7585 47.4591 52.3854 47.4641Z" fill="#FDDFE3"/>
<path d="M13.7041 8.80627C13.7048 9.43192 13.5812 10.0515 13.3405 10.629C13.0998 11.2065 12.7468 11.7304 12.302 12.1704C11.8573 12.6104 11.3295 12.9577 10.7494 13.1921C10.1693 13.4265 9.54849 13.5434 8.92288 13.536C8.29746 13.5347 7.67843 13.41 7.10137 13.1688C6.5243 12.9277 6.00055 12.5749 5.5602 12.1308C5.11985 11.6867 4.77157 11.1599 4.53537 10.5808C4.29917 10.0017 4.1797 9.38167 4.18382 8.75626C4.19208 7.49272 4.70132 6.28408 5.59976 5.39559C6.49821 4.50711 7.71245 4.01138 8.976 4.0172C9.60136 4.01965 10.2201 4.14563 10.7966 4.38793C11.3731 4.63022 11.8961 4.98404 12.3354 5.42905C12.7748 5.87407 13.1219 6.40152 13.3567 6.98109C13.5916 7.56066 13.7097 8.18093 13.7041 8.80627Z" fill="#FDDFE3"/>
</g>
<defs>
<clipPath id="clip0_479_5932">
<rect width="60" height="60" fill="white" transform="translate(0.666626 0.5)"/>
</clipPath>
</defs>
</svg>
