<svg width="37" height="37" viewBox="0 0 37 37" fill="none" xmlns="http://www.w3.org/2000/svg">
<g id="Layer_1" clip-path="url(#clip0_479_5856)">
<path id="Vector" d="M18.7505 0.762088H32.9986C34.955 0.762088 36.3882 2.05064 36.7149 4.10159C36.744 4.32673 36.7551 4.55413 36.748 4.7813C36.748 11.5312 36.748 18.2803 36.748 25.0287C36.748 27.3911 35.1975 29.0437 32.9936 29.0437C28.3311 29.0437 23.6689 29.0415 19.0071 29.0372C18.7226 29.0289 18.4455 29.1342 18.2293 29.3325C15.5513 31.639 12.8713 33.9412 10.1892 36.2391C9.79837 36.5752 9.40448 36.8705 8.86627 36.7213C8.30401 36.5656 7.95422 36.077 7.95322 35.4166C7.95322 33.4355 7.94119 31.4533 7.96024 29.471C7.96024 29.107 7.86803 29.0286 7.5453 29.0415C6.49594 29.0641 5.44057 29.0544 4.39521 29.049C2.33959 29.0372 0.756026 27.3546 0.754022 25.1555C0.748008 18.3261 0.748008 11.4968 0.754022 4.66747C0.754022 2.4662 2.33558 0.772827 4.3892 0.769605C9.17597 0.759583 13.9631 0.757077 18.7505 0.762088ZM10.3516 32.7805C10.4759 32.6849 10.529 32.6495 10.5761 32.6087C12.8098 30.6952 15.0425 28.7802 17.2742 26.8639C17.5731 26.5987 17.9516 26.4587 18.3396 26.4698C23.2266 26.4748 28.1129 26.4748 32.9986 26.4698C33.8575 26.4698 34.3486 25.9479 34.3486 25.033C34.3486 18.271 34.3486 11.5097 34.3486 4.74908C34.3486 3.84924 33.8625 3.3306 33.0206 3.3306C23.5106 3.3306 14.0005 3.3306 4.49043 3.3306C3.62648 3.3306 3.15242 3.84495 3.15242 4.77807C3.15242 11.5258 3.15242 18.2735 3.15242 25.0212C3.15242 25.9608 3.62047 26.4687 4.48843 26.4698C6.01286 26.4698 7.53829 26.4698 9.06272 26.4698C9.86452 26.4698 10.3466 26.9949 10.3506 27.8485C10.3506 28.772 10.3506 29.6965 10.3506 30.62L10.3516 32.7805Z" fill="#4E6785"/>
<path id="Vector_2" d="M10.3515 32.7803V30.6242C10.3515 29.7007 10.3515 28.7762 10.3515 27.8527C10.3515 26.999 9.86041 26.4761 9.06362 26.474C7.53919 26.474 6.01375 26.474 4.48932 26.474C3.62137 26.474 3.15332 25.965 3.15332 25.0254C3.15332 18.2777 3.15332 11.53 3.15332 4.78225C3.15332 3.84912 3.62739 3.33478 4.49133 3.33478C14.0007 3.33478 23.5108 3.33478 33.0215 3.33478C33.8634 3.33478 34.3495 3.85342 34.3495 4.75326C34.3495 11.5139 34.3495 18.2752 34.3495 25.0372C34.3495 25.9521 33.8584 26.474 32.9995 26.474C28.1138 26.474 23.2275 26.474 18.3405 26.474C17.9525 26.4629 17.574 26.6029 17.2751 26.868C15.0481 28.7901 12.8154 30.7051 10.577 32.6128C10.5289 32.6493 10.4758 32.6848 10.3515 32.7803ZM18.7534 13.6174C21.9266 13.6174 25.1004 13.6174 28.2748 13.6174C28.8952 13.6174 29.3262 13.2888 29.4966 12.7025C29.5727 12.4453 29.57 12.1688 29.4888 11.9134C29.4077 11.6579 29.2523 11.437 29.0456 11.283C28.78 11.0747 28.4753 11.0435 28.1566 11.0435C22.0488 11.0435 15.9411 11.0435 9.83335 11.0435C9.59581 11.0435 9.35828 11.036 9.12075 11.0435C8.88195 11.0489 8.65025 11.1315 8.45614 11.2806C8.26204 11.4297 8.11462 11.6383 8.0333 11.8789C7.73262 12.7584 8.32095 13.6099 9.24102 13.611C12.4108 13.6203 15.5816 13.6224 18.7534 13.6174ZM13.9526 18.7598C15.5141 18.7598 17.075 18.7598 18.6352 18.7598C19.3969 18.7598 19.9381 18.2304 19.9501 17.4927C19.9581 16.7357 19.4099 16.1902 18.6291 16.1902H9.26608C8.50236 16.1902 7.96314 16.7175 7.95211 17.4573C7.94309 18.209 8.49133 18.7587 9.27109 18.7598C10.8313 18.7613 12.3918 18.7613 13.9526 18.7598Z" fill="#D1D1EB"/>
<path id="Vector_3" d="M18.7534 13.6174C15.5816 13.6174 12.4078 13.6174 9.23199 13.6174C8.31192 13.6174 7.7236 12.7648 8.02427 11.8854C8.10551 11.6437 8.25339 11.4342 8.44832 11.2846C8.64324 11.135 8.876 11.0524 9.11573 11.0478C9.35327 11.0381 9.5908 11.0478 9.82833 11.0478C15.9361 11.0478 22.0438 11.0478 28.1516 11.0478C28.4703 11.0478 28.775 11.079 29.0406 11.2873C29.2475 11.441 29.4031 11.6615 29.4846 11.9168C29.5661 12.172 29.5692 12.4485 29.4936 12.7058C29.3232 13.292 28.8922 13.6206 28.2718 13.6206C25.0987 13.6235 21.9259 13.6224 18.7534 13.6174Z" fill="#4E6785"/>
<path id="Vector_4" d="M13.9528 18.7598C12.3926 18.7598 10.8321 18.7598 9.27123 18.7598C8.49147 18.7598 7.94324 18.2143 7.95226 17.4573C7.96028 16.7174 8.5025 16.1913 9.26622 16.1902H18.6293C19.41 16.1902 19.9583 16.7357 19.9503 17.4927C19.9412 18.2304 19.397 18.7587 18.6353 18.7598C17.0745 18.7612 15.5136 18.7612 13.9528 18.7598Z" fill="#4E6785"/>
</g>
<defs>
<clipPath id="clip0_479_5856">
<rect width="36" height="36" fill="white" transform="translate(0.75 0.760864)"/>
</clipPath>
</defs>
</svg>
