<svg width="61" height="63" viewBox="0 0 61 63" fill="none" xmlns="http://www.w3.org/2000/svg">
<g clip-path="url(#clip0_479_5941)">
<path d="M18.9679 32.8333C9.7582 26.1755 9.04827 13.4178 16.4955 5.76751C18.1587 4.05026 20.1498 2.68458 22.3508 1.75148C24.5518 0.818386 26.9178 0.336892 29.3084 0.335574C31.699 0.334256 34.0656 0.813138 36.2676 1.74381C38.4696 2.67448 40.4622 4.03797 42.1273 5.75338C49.4032 13.2095 49.0006 25.741 39.941 32.6337C40.2077 32.7468 40.439 32.8315 40.6615 32.941C42.1591 33.6774 43.692 34.3538 45.1401 35.1803C46.311 35.8461 46.6695 37.1035 46.2421 38.3362C45.8041 39.6024 44.665 40.4642 43.4483 40.3212C42.8846 40.2393 42.3437 40.0427 41.8589 39.7437C37.9818 37.4172 33.5183 36.2526 28.9988 36.3883C18.1944 36.6355 8.5997 44.8651 6.81781 55.4611C6.60304 56.919 6.46862 58.3876 6.41515 59.8602C6.29683 61.9123 4.49375 63.1485 2.54938 62.4616C1.37145 62.0448 0.737446 61.0858 0.751574 59.6783C0.816916 53.5803 2.5635 48.0139 6.09727 43.0337C9.22266 38.5907 13.5406 35.1218 18.5529 33.0276C18.6695 32.9905 18.7825 32.9269 18.9679 32.8333ZM17.0606 18.1755C16.9935 24.9163 22.4169 30.4015 29.2143 30.4651C30.8206 30.4884 32.4156 30.1939 33.9076 29.5985C35.3997 29.0031 36.7593 28.1186 37.9082 26.9958C39.0571 25.8729 39.9726 24.534 40.6021 23.0561C41.2317 21.5781 41.5627 19.9902 41.5763 18.3839C41.6505 11.6095 36.2447 6.04654 29.5198 5.97767C22.6253 5.9035 17.1313 11.281 17.0589 18.1702L17.0606 18.1755Z" fill="#EC9700"/>
<path d="M46.6255 53.9654H41.0555C39.2312 53.9654 38.0533 52.8793 38.0392 51.191C38.0197 49.5345 39.2171 48.346 40.9972 48.3124C42.825 48.2771 44.6529 48.2894 46.4807 48.2806C46.5001 48.2806 46.5195 48.2647 46.6255 48.2135V47.5548C46.6255 45.9459 46.6131 44.3389 46.6255 42.73C46.6396 41.0753 47.844 39.8356 49.4211 39.8232C50.9981 39.8109 52.2467 41.0294 52.2714 42.6788C52.3032 44.2859 52.2714 45.8947 52.2714 47.5036V48.3053H53.0255C54.6343 48.3053 56.2432 48.2806 57.8502 48.3053C59.9058 48.3459 61.1332 49.9813 60.6211 51.9415C60.2997 53.1777 59.2966 53.9389 57.9279 53.953C56.0789 53.9707 54.2299 53.953 52.2767 53.953V54.6877C52.2767 56.2947 52.2997 57.9036 52.2767 59.5106C52.2414 61.4267 50.8197 62.5994 48.9337 62.3133C47.5456 62.1014 46.6467 61.0329 46.629 59.5283C46.6114 57.9389 46.629 56.3495 46.629 54.7707L46.6255 53.9654Z" fill="#EC9700"/>
<path d="M17.0591 18.1702C17.1297 11.2828 22.6237 5.90352 29.52 5.97239C36.2449 6.04127 41.6507 11.6042 41.5765 18.3786C41.5629 19.985 41.2319 21.5728 40.6023 23.0508C39.9728 24.5288 39.0573 25.8677 37.9084 26.9905C36.7595 28.1133 35.3999 28.9978 33.9078 29.5932C32.4158 30.1886 30.8207 30.4831 29.2145 30.4598C22.4171 30.3962 16.9937 24.911 17.0591 18.1702Z" fill="#FFCE77"/>
</g>
<defs>
<clipPath id="clip0_479_5941">
<rect width="60" height="62.3294" fill="white" transform="translate(0.75 0.335327)"/>
</clipPath>
</defs>
</svg>
