<svg width="37" height="35" viewBox="0 0 37 35" fill="none" xmlns="http://www.w3.org/2000/svg">
<g id="Isolation_Mode" clip-path="url(#clip0_479_5829)">
<path id="Vector" d="M0.664307 11.6174C0.743441 9.04548 1.69834 6.5777 3.37097 4.6224C5.21901 2.45564 7.61649 1.29259 10.4302 1.02382C13.2986 0.74317 15.9339 1.47573 18.3599 3.0003C18.4448 3.06966 18.5511 3.10754 18.6607 3.10754C18.7704 3.10754 18.8767 3.06966 18.9616 3.0003C22.0013 1.1261 25.2692 0.414936 28.7489 1.38534C32.8564 2.53174 35.3276 5.32879 36.2885 9.43635C37.1852 13.2799 36.4336 16.8856 34.4976 20.2796C32.8469 23.1718 30.6326 25.5835 28.1543 27.7717C25.5622 30.005 22.8301 32.0705 19.9748 33.9556C18.6928 34.8238 18.6143 34.8261 17.3585 33.9556C14.1025 31.7437 10.913 29.4485 8.04698 26.7371C5.49492 24.3206 3.2901 21.6377 1.87968 18.3769C1.06864 16.5098 0.664307 14.5714 0.664307 11.6174ZM3.24966 12.0169C3.24966 14.1575 3.50177 15.499 4.04167 16.8737C5.15954 19.7278 7.00047 22.0849 9.1482 24.2231C11.9643 27.0296 15.1728 29.3486 18.4407 31.5962C18.6524 31.7437 18.7761 31.6581 18.9331 31.551C21.6154 29.7662 24.1791 27.8094 26.6083 25.693C28.913 23.6356 30.9751 21.3713 32.4592 18.6314C33.9719 15.8439 34.488 12.9231 33.7103 9.80739C32.678 5.67366 29.2507 3.23576 25.0123 3.58539C23.007 3.75036 21.0954 4.5051 19.5182 5.75452C19.2865 5.96466 18.9859 6.08284 18.6731 6.08678C18.3603 6.09073 18.0569 5.98017 17.82 5.77593C16.1773 4.45233 14.1589 3.68076 12.0523 3.57112C9.4003 3.44506 7.09561 4.25135 5.34508 6.31821C4.01566 7.91757 3.27665 9.92546 3.25205 12.0051L3.24966 12.0169Z" fill="#FA5F2E"/>
<path id="Vector_2" d="M3.2522 12.005C3.27257 9.91773 4.01269 7.90146 5.34758 6.29675C7.09811 4.22989 9.39094 3.4236 12.0548 3.54966C14.1615 3.6593 16.1799 4.43085 17.8225 5.75446C18.0594 5.95869 18.3629 6.06925 18.6756 6.0653C18.9884 6.06136 19.289 5.9432 19.5207 5.73306C21.0979 4.48363 23.0095 3.7289 25.0149 3.56393C29.2533 3.2143 32.6806 5.65219 33.7128 9.78591C34.4906 12.8898 33.9744 15.8224 32.4618 18.6099C30.9776 21.3499 28.9155 23.6046 26.6108 25.6715C24.1817 27.788 21.6179 29.7447 18.9356 31.5296C18.7786 31.6366 18.6549 31.7222 18.4433 31.5748C15.1753 29.3343 11.9668 27.0153 9.15073 24.2016C7.01014 22.061 5.16207 19.7064 4.04421 16.8522C3.5043 15.487 3.25458 14.1503 3.2522 12.005ZM13.5556 7.43126C13.5647 7.1256 13.46 6.82743 13.2618 6.59454C13.0637 6.36165 12.7861 6.21061 12.4829 6.17068C11.8053 6.09051 11.1201 6.09851 10.4446 6.19448C7.75219 6.68681 6.3394 8.64187 5.88987 11.3129C5.7876 11.9122 6.27044 12.5021 6.88407 12.6424C7.18104 12.7109 7.49274 12.6706 7.76249 12.5288C8.03224 12.3869 8.2421 12.1529 8.35393 11.8694C8.41709 11.6791 8.4695 11.4853 8.51091 11.2891C8.86054 9.93337 9.54077 8.89399 11.0582 8.69658C11.4045 8.66092 11.7536 8.66092 12.1 8.69658C12.28 8.71599 12.4621 8.69804 12.6348 8.64383C12.8075 8.58962 12.9672 8.50033 13.1039 8.38155C13.2405 8.26277 13.3512 8.11705 13.4289 7.95354C13.5066 7.79002 13.5497 7.61222 13.5556 7.43126Z" fill="#F9C1B0"/>
</g>
<defs>
<clipPath id="clip0_479_5829">
<rect width="36" height="33.6596" fill="white" transform="translate(0.666748 0.93103)"/>
</clipPath>
</defs>
</svg>
