<svg width="61" height="61" viewBox="0 0 61 61" fill="none" xmlns="http://www.w3.org/2000/svg">
<g clip-path="url(#clip0_479_5784)">
<g clip-path="url(#clip1_479_5784)">
<path d="M2.45831 16.4375V10.7258C2.45831 6.11328 6.19659 2.375 10.8091 2.375H50.3575C54.97 2.375 58.7083 6.11328 58.7083 10.7258V16.4375L29.1185 20.3633L2.45831 16.4375Z" fill="#BBE2F8"/>
<path d="M58.7083 16.4375V50.2742C58.7083 54.8867 54.97 58.625 50.3575 58.625H10.8091C6.19659 58.625 2.45831 54.8867 2.45831 50.2742V16.4375C3.72968 16.4375 58.2239 16.4375 58.7083 16.4375Z" fill="white"/>
<path d="M30.5833 25.2266C37.379 25.2266 42.888 30.7355 42.888 37.5312C42.888 44.327 37.379 49.8359 30.5833 49.8359C23.7876 49.8359 18.2786 44.327 18.2786 37.5312C18.2786 30.7355 23.7876 25.2266 30.5833 25.2266Z" fill="#BBE2F8"/>
<path d="M35.7232 37.5313L27.3185 42.384V32.6785L35.7232 37.5313Z" fill="white"/>
<path d="M36.6022 36.009L28.1971 31.1564C27.0293 30.4819 25.5604 31.3241 25.5604 32.6786V42.3839C25.5604 43.7325 27.0241 44.5835 28.1971 43.9061L36.6022 39.0535C37.7716 38.3783 37.7736 36.6854 36.6022 36.009ZM29.0762 39.3393V35.7233L32.2077 37.5312L29.0762 39.3393Z" fill="#1CAEFF"/>
<path d="M30.5833 23.4688C22.8293 23.4688 16.5208 29.7772 16.5208 37.5312C16.5208 45.2853 22.8293 51.5938 30.5833 51.5938C38.3374 51.5938 44.6458 45.2853 44.6458 37.5312C44.6458 29.7772 38.3374 23.4688 30.5833 23.4688ZM30.5833 48.0781C24.7678 48.0781 20.0364 43.3468 20.0364 37.5312C20.0364 31.7157 24.7678 26.9844 30.5833 26.9844C36.3989 26.9844 41.1302 31.7157 41.1302 37.5312C41.1302 43.3468 36.3989 48.0781 30.5833 48.0781Z" fill="#1CAEFF"/>
<path d="M50.3576 0.617188H10.809C5.23507 0.617188 0.7005 5.15176 0.7005 10.7257V50.2743C0.7005 55.8482 5.23507 60.3828 10.809 60.3828H50.3576C55.9316 60.3828 60.4661 55.8482 60.4661 50.2743V10.7257C60.4661 5.15176 55.9316 0.617188 50.3576 0.617188ZM10.809 4.13281H50.3576C53.993 4.13281 56.9505 7.09027 56.9505 10.7257V14.6797H45.9896L48.4546 12.4741C49.1782 11.8268 49.2398 10.7155 48.5926 9.99195C47.9453 9.26844 46.8339 9.20691 46.1104 9.85402L40.7171 14.6797H32.2373L34.7025 12.4741C35.426 11.8269 35.4876 10.7155 34.8404 9.99195C34.193 9.26844 33.0817 9.20691 32.3582 9.85402L26.9648 14.6797H18.4849L20.9499 12.4741C21.6734 11.8268 21.7351 10.7155 21.0878 9.99195C20.4405 9.26844 19.3291 9.20691 18.6057 9.85402L13.2125 14.6797H4.21613V10.7257C4.21613 7.09027 7.17359 4.13281 10.809 4.13281ZM50.3576 56.8672H10.809C7.17359 56.8672 4.21613 53.9097 4.21613 50.2743V18.1953H56.9505V50.2743C56.9505 53.9097 53.993 56.8672 50.3576 56.8672Z" fill="#1CAEFF"/>
</g>
</g>
<defs>
<clipPath id="clip0_479_5784">
<rect width="60" height="60" fill="white" transform="translate(0.583313 0.5)"/>
</clipPath>
<clipPath id="clip1_479_5784">
<rect width="60" height="60" fill="white" transform="translate(0.583313 0.5)"/>
</clipPath>
</defs>
</svg>
