<svg width="37" height="37" viewBox="0 0 37 37" fill="none" xmlns="http://www.w3.org/2000/svg">
<g id="Layer_1" clip-path="url(#clip0_479_5867)">
<path id="Vector" d="M24.3649 36.7444C23.9029 36.5773 23.6465 36.2335 23.4615 35.7875C21.4943 31.0335 19.5187 26.2827 17.5346 21.5351C17.3845 21.1643 17.1616 20.8274 16.8792 20.5442C16.5967 20.261 16.2605 20.0371 15.8902 19.886C11.1005 17.8825 6.30781 15.8865 1.51194 13.898C0.525844 13.4876 0.370883 12.479 1.21517 11.8319C1.48647 11.6293 1.78956 11.4731 2.11204 11.3699C10.27 8.67077 18.4302 5.97857 26.5926 3.29326C28.9132 2.52786 31.2469 1.80003 33.5488 0.982039C35.0993 0.429826 36.3136 1.06938 36.6667 2.44522V3.14863C36.6038 3.33646 36.5399 3.52429 36.4789 3.71211C33.8612 11.6485 31.2441 19.5876 28.6277 27.5296C27.7712 30.1285 26.9134 32.7268 26.0544 35.3245C25.846 35.9574 25.521 36.4946 24.858 36.7454L24.3649 36.7444ZM33.4915 5.58851L19.2551 19.8221C21.0207 24.0548 22.7825 28.2809 24.5837 32.601C27.573 23.5345 30.5257 14.5808 33.4915 5.58851ZM17.5919 18.1598L31.8208 3.93375L4.82146 12.8358L17.5919 18.1598Z" fill="#39C08B"/>
<path id="Vector_2" d="M33.4915 5.5885C30.5257 14.5808 27.575 23.5345 24.5838 32.6009C22.7825 28.2809 21.0151 24.0548 19.2551 19.8221L33.4915 5.5885Z" fill="#CDF1E3"/>
<path id="Vector_3" d="M17.5919 18.1598L4.81958 12.8358L31.8208 3.93372L17.5919 18.1598Z" fill="#CDF1E3"/>
</g>
<defs>
<clipPath id="clip0_479_5867">
<rect width="36" height="35.9671" fill="white" transform="translate(0.666748 0.777283)"/>
</clipPath>
</defs>
</svg>
