<svg width="61" height="61" viewBox="0 0 61 61" fill="none" xmlns="http://www.w3.org/2000/svg">
<g clip-path="url(#clip0_479_5814)">
<rect x="3.90845" y="3.75543" width="53.5745" height="13.8202" fill="#BBCDF4"/>
<path d="M20.282 44.3461C26.8205 35.5 43.4744 23.1154 57.782 44.3461C53.1667 54.9231 39.2051 69.7307 20.282 44.3461Z" fill="#BBCDF4"/>
<path d="M55.8672 20.3226H4.78715C4.77691 20.5632 4.75814 20.7713 4.75814 20.9778C4.75814 30.6655 4.75814 40.3522 4.75814 50.0377C4.75814 52.5543 5.7119 54.5915 7.99991 55.7568C8.81718 56.1731 9.82724 56.3455 10.7571 56.3796C13.0963 56.4666 15.4406 56.4001 17.7832 56.4137C18.9588 56.4137 19.8221 57.1559 19.9296 58.1864C20.0491 59.3398 19.3427 60.4045 18.1671 60.4233C14.9595 60.4591 11.7143 60.6229 8.5476 60.2236C4.41349 59.7015 1.15978 55.8745 0.76565 51.708C0.702521 51.0528 0.670102 50.3908 0.668396 49.7322C0.668396 36.8095 0.668396 23.8868 0.668396 10.9641C0.668396 7.21049 2.11184 4.18541 5.25976 2.05949C6.79317 1.03254 8.60297 0.496921 10.4483 0.523915C23.6292 0.514815 36.8101 0.514815 49.991 0.523915C55.0431 0.534152 59.5218 4.21953 60.4824 9.05488C60.5998 9.6827 60.6569 10.3203 60.653 10.959C60.665 16.4939 60.653 22.0288 60.6684 27.5654C60.6684 28.6522 60.2248 29.403 59.254 29.8449C58.2831 30.2868 57.4266 30.0871 56.635 29.4456C56.0839 29.0003 55.8638 28.4048 55.8655 27.7019C55.874 25.4838 55.8655 23.2743 55.8655 21.0597L55.8672 20.3226ZM4.81615 16.1646H55.8655C55.8655 14.3458 55.8842 12.5628 55.8655 10.7798C55.8211 7.19684 53.1953 4.61025 49.6123 4.60854H10.8475C7.93337 4.60854 5.66243 6.3881 4.96289 9.21527C4.88463 9.48016 4.83768 9.75331 4.82298 10.0291C4.81104 12.0629 4.81615 14.0984 4.81615 16.1646Z" fill="#5D87FF"/>
<path d="M39.5918 60.3772C30.7434 60.285 24.6916 56.4205 20.6001 49.3466C19.7863 47.9373 19.2096 46.3898 18.5715 44.8849C18.4661 44.5739 18.4764 44.2352 18.6005 43.9312C22.3319 34.8201 31.9088 28.9525 41.6853 30.0547C50.5012 31.0494 56.7288 35.8063 60.4158 43.8749C60.5583 44.2196 60.577 44.603 60.4687 44.96C57.6228 53.3647 51.9685 58.5601 43.1048 60.0274C41.7654 60.2424 40.3988 60.2936 39.5918 60.3772ZM39.7402 56.1884C47.1468 55.7653 52.7073 52.4075 56.1418 45.6971C56.2427 45.5266 56.2959 45.3321 56.2959 45.134C56.2959 44.9359 56.2427 44.7415 56.1418 44.571C52.6783 37.9015 47.2014 34.2058 39.6873 34.2007C32.1732 34.1956 26.6912 37.8776 23.214 44.5403C23.1065 44.7193 23.0497 44.9243 23.0497 45.1332C23.0497 45.3421 23.1065 45.547 23.214 45.7261C26.6673 52.4263 32.2261 55.7807 39.747 56.1884H39.7402Z" fill="#5D87FF"/>
<path d="M33.4495 13.4859C31.9958 13.4859 30.9397 12.4843 30.9311 11.0972C30.9226 9.71006 31.9924 8.68976 33.4904 8.69147C34.9424 8.69147 36.0002 9.693 36.0105 11.0801C36.0207 12.4673 34.9441 13.4876 33.4495 13.4859Z" fill="#5D87FF"/>
<path d="M41.0352 13.4859C39.5645 13.4859 38.551 12.5031 38.5527 11.087C38.5544 9.67083 39.5765 8.6983 41.112 8.6983C42.5879 8.6983 43.598 9.67595 43.5962 11.087C43.5945 12.498 42.5691 13.491 41.0352 13.4859Z" fill="#5D87FF"/>
<path d="M48.2525 8.6966C49.7317 8.6966 50.7554 9.65718 50.7725 11.0614C50.7896 12.4656 49.7488 13.4859 48.2456 13.4859C46.7425 13.4859 45.7136 12.4963 45.729 11.0563C45.7443 9.65035 46.7647 8.69489 48.2525 8.6966Z" fill="#5D87FF"/>
<path d="M39.7658 36.9392C44.2992 37.016 47.9709 40.7798 47.8702 45.2432C47.7696 49.7629 44.0654 53.3886 39.6106 53.3306C35.084 53.2726 31.4072 49.5326 31.4737 45.0555C31.5403 40.529 35.2871 36.8624 39.7658 36.9392ZM39.6583 41.1671C38.6045 41.1743 37.5966 41.599 36.8553 42.3479C36.114 43.0969 35.6997 44.1092 35.7034 45.163C35.715 46.2057 36.1353 47.2023 36.8739 47.9383C37.6125 48.6744 38.6105 49.0912 39.6532 49.0992C40.7073 49.1006 41.7191 48.6843 42.467 47.9415C43.2149 47.1987 43.6381 46.1898 43.644 45.1357C43.6395 44.0816 43.2176 43.0722 42.4706 42.3284C41.7236 41.5847 40.7125 41.1671 39.6583 41.1671Z" fill="#5D87FF"/>
</g>
<defs>
<clipPath id="clip0_479_5814">
<rect width="60" height="59.9727" fill="white" transform="translate(0.666687 0.513672)"/>
</clipPath>
</defs>
</svg>
